<!DOCTYPE svg PUBLIC "-//W3C//DTD SVG 1.1//EN" "http://www.w3.org/Graphics/SVG/1.1/DTD/svg11.dtd">
<!-- Uploaded to: SVG Repo, www.svgrepo.com, Transformed by: SVG Repo Mixer Tools -->
<svg width="800px" height="800px" viewBox="-11.94 -11.94 143.32 143.32" xmlns="http://www.w3.org/2000/svg" fill="#fbff1a" stroke="#fbff1a">
<g id="SVGRepo_bgCarrier" stroke-width="0">
<path transform="translate(-11.94, -11.94), scale(4.47875)" d="M16,26.526100753757515C17.380560895405072,26.031169897173434,19.024593115125533,26.33470390220225,20.228220183667126,25.49673802068041C21.410407067134962,24.6736988087682,21.51227328498384,22.88876963384154,22.59280356159076,21.936186990117523C23.84969659630173,20.828125035904613,26.3986427202877,21.139847710064466,26.96079660376546,19.561378702966145C27.515029790027935,18.005150180967018,25.31223161261999,16.67957882481044,25.04549763076686,15.049279888920763C24.79817803481604,13.537643196430253,26.341808638347974,11.793257477080337,25.482404581495917,10.525331162308394C24.595381019236545,9.216656264343582,21.92453293783969,10.39185365027639,21.013099666806134,9.100060253087975C19.483255738803482,6.9317805251803275,21.13718068472101,3.1526113128108673,19.08958350304035,1.4646524258484934C17.51761255981941,0.16878117373117507,14.767798758531708,1.3766344140823523,13.156758498529175,2.6236004236616086C11.48681723236028,3.9161565742466244,11.389635041770783,6.387529719574581,10.35267904568907,8.22712953938842C9.704444222591249,9.377123047573734,9.116191323369117,10.560545336586234,8.166153084161927,11.477126374350561C6.81882403382751,12.777006956205986,4.098520233894747,12.885425720751833,3.6423353865592034,14.701157111134584C3.2179094293845107,16.39048006396053,6.077520091515534,17.43874421561398,6.232473444585578,19.1736617613321C6.448337795203224,21.590562344388932,3.775989231134967,23.94598985686737,4.66952806225509,26.20200275654869C5.440859749253385,28.149466230094337,8.071852832639427,29.044277248726246,10.16564833435601,29.104168392925686C12.314445587779108,29.165632812948854,13.976431102186083,27.251549874680272,16,26.526100753757515" fill="#9e37c3" strokewidth="0"/>
</g>
<g id="SVGRepo_tracerCarrier" stroke-linecap="round" stroke-linejoin="round"/>
<g id="SVGRepo_iconCarrier"> <defs> <style>.cls-1{fill:#ffffff;}</style> </defs> <g id="Layer_2" data-name="Layer 2"> <g id="Layer_1-2" data-name="Layer 1"> <path d="M63.47,113.73c-3.44,0-6.88,0-10.31,0-7.68.13-14.71-2.23-21.27-5.87C18.1,100.21,8.65,88.62,2.59,74.21A31.66,31.66,0,0,1,.36,65.1a70.7,70.7,0,0,1,5.78-36C11.73,16.5,21.48,7.82,34.23,2.68A38.52,38.52,0,0,1,55.35.62,27.41,27.41,0,0,1,65.51,4.84c5.23,3.46,4.42,10.34-1.35,13-3.95,1.81-7.48,3.8-10.18,7.48-8.14,11.07-7,22.59,2.51,32.45,9.28,9.57,27,7.92,34.18-2.23.82-1.17,1.59-2.37,2.4-3.55,5.09-7.44,12.81-8.25,19.64-2.26,4.6,4,7,8.88,6.7,15.08C118.53,82.22,111,96.29,97,106.33c-6.64,4.76-14.34,8.38-23.21,7.47a101.06,101.06,0,0,0-10.3-.06Zm41.24-56.11c-2.06,2.14-4.11,4.43-6.32,6.55-9.69,9.34-21,12-34,8.49-8.4-2.27-14.62-7.61-20.09-14-6.89-8.06-8.38-17.28-5.39-27.32C41,24.23,45.6,18.82,51.07,14c1.14-1,3.38-1.31,2.8-3.78C51.58,8.71,49,9,46.54,9.47A40.64,40.64,0,0,0,24.43,21.86c-12.06,13-13.87,28.91-11.88,45.67a17.53,17.53,0,0,0,1.46,4c3,7.59,7.94,14,13.29,19.87,5.18,5.68,11.37,10.52,19.34,12.08,9.64,1.88,19.36,1.26,29.06.85a12.85,12.85,0,0,0,3.32-.88c7.79-2.62,14.17-6.86,18.88-14A55.44,55.44,0,0,0,107.06,64C107.27,61.79,107.57,59.31,104.71,57.62Z"/> <path class="cls-1" d="M104.71,57.62c2.86,1.69,2.56,4.17,2.35,6.35A55.44,55.44,0,0,1,97.9,89.48c-4.71,7.11-11.09,11.35-18.88,14a12.85,12.85,0,0,1-3.32.88c-9.7.41-19.42,1-29.06-.85-8-1.56-14.16-6.4-19.34-12.08C22,85.53,17,79.12,14,71.53a17.53,17.53,0,0,1-1.46-4c-2-16.76-.18-32.64,11.88-45.67A40.64,40.64,0,0,1,46.54,9.47c2.47-.5,5-.76,7.33.77.58,2.47-1.66,2.79-2.8,3.78-5.47,4.8-10,10.21-12.15,17.32-3,10-1.5,19.26,5.39,27.32,5.47,6.39,11.69,11.73,20.09,14,12.94,3.5,24.3.85,34-8.49C100.6,62.05,102.65,59.76,104.71,57.62Z"/> </g> </g> </g>
</svg>